<?xml version="1.0" standalone="no"?>
<!DOCTYPE svg PUBLIC "-//W3C//DTD SVG 20010904//EN"
 "http://www.w3.org/TR/2001/REC-SVG-20010904/DTD/svg10.dtd">
<svg version="1.0" xmlns="http://www.w3.org/2000/svg"
 width="100.000000pt" height="100.000000pt" viewBox="0 0 100.000000 100.000000"
 preserveAspectRatio="xMidYMid meet">

	<g transform="translate(0.000000,100.000000) scale(0.100000,-0.100000)"
	fill="#000000" stroke="none">
		<path d="M197 845 c-20 -104 -31 -142 -50 -164 -32 -38 -51 -134 -44 -217 5
		-48 0 -95 -18 -186 -14 -66 -25 -122 -25 -124 0 -2 63 27 140 66 77 38 150 70
		162 70 11 0 61 -8 109 -17 100 -19 92 -7 105 -151 6 -63 9 -73 28 -77 77 -18
		119 -25 122 -23 2 2 -7 50 -20 107 l-24 103 68 -6 c65 -7 70 -6 99 21 26 25
		33 43 55 157 32 158 32 168 4 201 -24 27 -21 26 -339 99 l-117 27 -108 124
		c-60 69 -112 125 -115 125 -4 0 -18 -61 -32 -135z"/>
	</g>
</svg>
